<?xml version="1.0" encoding="utf-8"?>
<!-- Generator: Adobe Illustrator 19.2.0, SVG Export Plug-In . SVG Version: 6.00 Build 0)  -->
<svg version="1.1" xmlns="http://www.w3.org/2000/svg" xmlns:xlink="http://www.w3.org/1999/xlink" x="0px" y="0px"
	 viewBox="0 0 176 44" style="enable-background:new 0 0 176 44;" xml:space="preserve">
<style type="text/css">
	.st0{display:none;}
	.st1{fill:#FFFFFF;}
</style>
<g id="Layer_1" class="st0">
</g>
<g id="Layer_2">
	<g>
		<path class="st1" d="M0,37.5L23.9,8.3H0.5V2.8h30.6v4.8L7.8,36.8h23.4v5.5H0V37.5z"/>
		<path class="st1" d="M64.6,36.8v5.5H37.5V2.8h26.6v5.5H43.7v11.2h17.6v5.2H43.7v12.1C43.7,36.8,64.6,36.8,64.6,36.8z"/>
		<path class="st1" d="M71.2,42.3V2.8h17.2c1.8,0,3.4,0.4,4.9,1.1s2.8,1.7,3.9,2.9s1.9,2.6,2.5,4.1s0.9,3.1,0.9,4.7
			c0,1.3-0.2,2.6-0.6,3.8s-0.9,2.4-1.6,3.4s-1.5,1.9-2.4,2.7c-1,0.8-2,1.3-3.2,1.7l9.4,15h-7.1l-8.7-13.7h-9.1v13.7L71.2,42.3
			L71.2,42.3z M77.5,23h10.9c0.9,0,1.7-0.2,2.4-0.6c0.7-0.4,1.3-0.9,1.9-1.6c0.5-0.7,0.9-1.5,1.2-2.4c0.3-0.9,0.4-1.8,0.4-2.8
			s-0.2-1.9-0.5-2.8c-0.4-0.9-0.8-1.7-1.4-2.3c-0.6-0.7-1.2-1.2-2-1.6c-0.8-0.4-1.5-0.6-2.4-0.6H77.5V23z"/>
		<path class="st1" d="M124.1,42.5c-2.8,0-5.3-0.6-7.6-1.7c-2.3-1.1-4.2-2.6-5.9-4.5s-2.9-4-3.8-6.4s-1.3-4.9-1.3-7.4
			c0-2.6,0.5-5.1,1.4-7.6c0.9-2.4,2.2-4.5,3.9-6.4c1.7-1.9,3.6-3.3,5.9-4.4s4.8-1.6,7.5-1.6c2.8,0,5.3,0.6,7.6,1.8s4.2,2.7,5.9,4.6
			c1.6,1.9,2.9,4,3.8,6.4c0.9,2.4,1.3,4.8,1.3,7.3c0,2.6-0.5,5.1-1.4,7.6c-0.9,2.4-2.2,4.5-3.9,6.4c-1.7,1.8-3.6,3.3-5.9,4.4
			C129.3,42,126.8,42.5,124.1,42.5z M111.8,22.5c0,1.9,0.3,3.6,0.9,5.4c0.6,1.7,1.4,3.3,2.5,4.6c1.1,1.3,2.4,2.4,3.9,3.2
			s3.2,1.2,5.1,1.2s3.7-0.4,5.2-1.3c1.5-0.8,2.8-1.9,3.9-3.3c1.1-1.4,1.9-2.9,2.4-4.6c0.6-1.7,0.8-3.4,0.8-5.2
			c0-1.9-0.3-3.7-0.9-5.4c-0.6-1.7-1.4-3.2-2.5-4.6c-1.1-1.3-2.4-2.4-3.9-3.2s-3.2-1.2-5.1-1.2s-3.7,0.4-5.2,1.3
			c-1.5,0.8-2.8,1.9-3.9,3.2s-1.9,2.9-2.4,4.6C112.1,19,111.8,20.8,111.8,22.5z"/>
		<path class="st1" d="M157,4.1h-5.2v13.2h-1.4V4.1h-5.2V2.8h11.7L157,4.1L157,4.1z"/>
		<path class="st1" d="M172,17.3V5.4l-5.3,9.2h-0.8l-5.3-9.2v11.9h-1.4V2.8h1.4l5.7,9.9l5.7-9.9h1.4v14.5H172z"/>
	</g>
</g>
</svg>
