<?xml version="1.0" encoding="utf-8"?>
<!-- Generator: Adobe Illustrator 19.2.0, SVG Export Plug-In . SVG Version: 6.00 Build 0)  -->
<svg version="1.1" id="Layer_1" xmlns="http://www.w3.org/2000/svg" xmlns:xlink="http://www.w3.org/1999/xlink" x="0px" y="0px"
	 viewBox="0 0 176 44" style="enable-background:new 0 0 176 44;" xml:space="preserve">
<style type="text/css">
	.st0{fill:#231F20;}
</style>
<g>
	<path class="st0" d="M1.3,37.5L25.2,8.3H1.8V2.8h30.6v4.8L9.1,36.8h23.4v5.5H1.3V37.5z"/>
	<path class="st0" d="M65.9,36.8v5.5H38.8V2.8h26.6v5.5H45v11.2h17.6v5.2H45v12.1H65.9z"/>
	<path class="st0" d="M72.5,42.3V2.8h17.2c1.8,0,3.4,0.4,4.9,1.1c1.5,0.7,2.8,1.7,3.9,2.9c1.1,1.2,1.9,2.6,2.5,4.1s0.9,3.1,0.9,4.7
		c0,1.3-0.2,2.6-0.6,3.8c-0.4,1.2-0.9,2.4-1.6,3.4c-0.7,1-1.5,1.9-2.4,2.7c-1,0.8-2,1.3-3.2,1.7l9.4,15h-7.1l-8.7-13.7h-9.1v13.7
		H72.5z M78.8,23h10.9c0.9,0,1.7-0.2,2.4-0.6c0.7-0.4,1.3-0.9,1.9-1.6c0.5-0.7,0.9-1.5,1.2-2.4c0.3-0.9,0.4-1.8,0.4-2.8
		s-0.2-1.9-0.5-2.8c-0.4-0.9-0.8-1.7-1.4-2.3c-0.6-0.7-1.2-1.2-2-1.6c-0.8-0.4-1.5-0.6-2.4-0.6H78.8V23z"/>
	<path class="st0" d="M125.4,42.5c-2.8,0-5.3-0.6-7.6-1.7c-2.3-1.1-4.2-2.6-5.9-4.5s-2.9-4-3.8-6.4c-0.9-2.4-1.3-4.9-1.3-7.4
		c0-2.6,0.5-5.1,1.4-7.6c0.9-2.4,2.2-4.5,3.9-6.4c1.7-1.9,3.6-3.3,5.9-4.4c2.3-1.1,4.8-1.6,7.5-1.6c2.8,0,5.3,0.6,7.6,1.8
		c2.3,1.2,4.2,2.7,5.9,4.6c1.6,1.9,2.9,4,3.8,6.4c0.9,2.4,1.3,4.8,1.3,7.3c0,2.6-0.5,5.1-1.4,7.6c-0.9,2.4-2.2,4.5-3.9,6.4
		c-1.7,1.8-3.6,3.3-5.9,4.4C130.6,42,128.1,42.5,125.4,42.5z M113.1,22.5c0,1.9,0.3,3.6,0.9,5.4c0.6,1.7,1.4,3.3,2.5,4.6
		c1.1,1.3,2.4,2.4,3.9,3.2c1.5,0.8,3.2,1.2,5.1,1.2c1.9,0,3.7-0.4,5.2-1.3c1.5-0.8,2.8-1.9,3.9-3.3c1.1-1.4,1.9-2.9,2.4-4.6
		c0.6-1.7,0.8-3.4,0.8-5.2c0-1.9-0.3-3.7-0.9-5.4c-0.6-1.7-1.4-3.2-2.5-4.6c-1.1-1.3-2.4-2.4-3.9-3.2c-1.5-0.8-3.2-1.2-5.1-1.2
		c-1.9,0-3.7,0.4-5.2,1.3c-1.5,0.8-2.8,1.9-3.9,3.2c-1.1,1.3-1.9,2.9-2.4,4.6C113.4,19,113.1,20.8,113.1,22.5z"/>
	<path class="st0" d="M158.3,4.1h-5.2v13.2h-1.4V4.1h-5.2V2.8h11.7V4.1z"/>
	<path class="st0" d="M173.3,17.3V5.4l-5.3,9.2h-0.8l-5.3-9.2v11.9h-1.4V2.8h1.4l5.7,9.9l5.7-9.9h1.4v14.5H173.3z"/>
</g>
</svg>
